<svg role="img" viewBox="0 0 24 24" xmlns="http://www.w3.org/2000/svg" fill="white">
  <title>GitHub</title>
  <path d="M12 0a12 12 0 0 0-3.79 23.4c.6.11.82-.26.82-.58 0-.29-.01-1.05-.02-2.07-3.34.72-4.04-1.61-4.04-1.61-.55-1.39-1.33-1.76-1.33-1.76-1.08-.74.08-.72.08-.72 1.2.09 1.84 1.23 1.84 1.23 1.07 1.83 2.8 1.3 3.48 1 .11-.77.42-1.3.76-1.6-2.67-.3-5.48-1.33-5.48-5.93 0-1.31.47-2.38 1.24-3.22-.12-.3-.54-1.53.12-3.2 0 0 1.01-.32 3.3 1.22a11.48 11.48 0 0 1 6 0c2.29-1.54 3.3-1.22 3.3-1.22.66 1.67.24 2.9.12 3.2.77.84 1.24 1.91 1.24 3.22 0 4.61-2.81 5.63-5.49 5.93.43.37.81 1.1.81 2.21 0 1.6-.01 2.88-.01 3.28 0 .32.22.69.83.58A12 12 0 0 0 12 0z"/>
</svg>
